<?xml version="1.0" standalone="no"?>
<!DOCTYPE svg PUBLIC "-//W3C//DTD SVG 20010904//EN"
 "http://www.w3.org/TR/2001/REC-SVG-20010904/DTD/svg10.dtd">
<svg version="1.0" xmlns="http://www.w3.org/2000/svg"
 width="512.000000pt" height="512.000000pt" viewBox="0 0 512.000000 512.000000"
 preserveAspectRatio="xMidYMid meet">
<defs>
    <linearGradient id="Gradient1">
      <stop class="stop1" offset="0%" />
      <stop class="stop2" offset="50%" />
      <stop class="stop3" offset="100%" />
    </linearGradient>
    <linearGradient id="Gradient2" x1="0" x2="0" y1="0" y2="1">
      <stop offset="0%" stop-color="red" />
      <stop offset="50%" stop-color="black" stop-opacity="0" />
      <stop offset="100%" stop-color="blue" />
    </linearGradient>
  </defs>
  <style>
    #rect1 {
      fill: url(#Gradient1);
    }
    .stop1 {
      stop-color: red;
    }
    .stop2 {
      stop-color: black;
      stop-opacity: 0;
    }
    .stop3 {
      stop-color: blue;
    }
  </style>
<g transform="translate(0.000000,512.000000) scale(0.100000,-0.100000)"
fill="#9400cd" stroke="none">
<path d="M2280 4774 c-345 -44 -679 -169 -964 -362 -145 -97 -238 -176 -368
-310 -328 -340 -530 -753 -604 -1232 -49 -313 -4 -726 117 -1084 41 -124 174
-391 248 -501 332 -496 834 -813 1468 -927 111 -20 161 -23 383 -23 285 0 394
14 633 80 423 116 803 356 1074 679 331 394 526 946 527 1486 0 566 -223 1109
-629 1529 -367 380 -844 613 -1367 670 -129 15 -388 12 -518 -5z m644 -333
c168 -34 336 -93 501 -176 226 -113 414 -257 571 -436 517 -591 630 -1413 289
-2114 -278 -575 -834 -976 -1475 -1066 -205 -29 -505 -11 -714 42 -636 162
-1138 622 -1349 1235 -245 707 -62 1477 474 2000 298 289 654 467 1064 529
144 22 500 14 639 -14z"/>
<path d="M2390 4296 c-262 -61 -465 -219 -584 -453 -14 -28 -38 -91 -52 -140
-24 -77 -27 -105 -27 -228 0 -123 3 -151 27 -230 83 -274 276 -476 543 -565
76 -25 122 -33 270 -44 186 -15 289 -38 409 -91 135 -60 295 -191 395 -325 58
-77 134 -240 161 -345 33 -128 33 -349 0 -480 -28 -113 -114 -290 -181 -373
l-51 -62 62 31 c515 260 857 743 933 1318 56 418 -47 870 -279 1226 -265 405
-655 658 -1158 751 -113 21 -396 27 -468 10z m252 -572 c180 -61 237 -294 105
-432 -54 -57 -102 -77 -187 -77 -57 0 -84 5 -115 22 -167 89 -196 315 -55 436
75 63 163 82 252 51z"/>
<path d="M2489 3541 c-40 -40 -40 -89 0 -133 24 -27 36 -33 71 -33 35 0 47 6
71 33 40 44 40 93 0 133 -23 23 -38 29 -71 29 -33 0 -48 -6 -71 -29z"/>
<path d="M1732 4105 c-833 -447 -1165 -1472 -753 -2320 261 -536 778 -903
1373 -976 53 -6 159 -9 235 -7 123 4 149 8 233 37 222 75 390 221 490 425 203
412 37 912 -371 1117 -114 57 -203 78 -368 89 -170 11 -234 22 -330 55 -154
52 -273 128 -387 246 -356 372 -391 934 -82 1320 27 32 47 59 45 59 -1 0 -39
-20 -85 -45z m910 -2221 c180 -61 237 -294 105 -432 -54 -57 -102 -77 -187
-77 -57 0 -84 5 -115 22 -167 89 -196 315 -55 436 75 63 163 82 252 51z"/>
<path d="M2489 1701 c-40 -40 -40 -89 0 -133 24 -27 36 -33 71 -33 35 0 47 6
71 33 40 44 40 93 0 133 -23 23 -38 29 -71 29 -33 0 -48 -6 -71 -29z"/>
</g>
</svg>
